<?xml version="1.0" encoding="UTF-8"?>
<svg width="65px" height="65px" viewBox="0 0 65 65" version="1.1" xmlns="http://www.w3.org/2000/svg" xmlns:xlink="http://www.w3.org/1999/xlink">
    <!-- Generator: Sketch 62 (91390) - https://sketch.com -->
    <title>Application Icons/GoogleCloud/CloudSQL/65x65</title>
    <desc>Created with Sketch.</desc>
    <defs>
        <rect id="path-1" x="0" y="0" width="65" height="65" rx="16"></rect>
    </defs>
    <g id="Application-Icons/GoogleCloud/CloudSQL/65x65" stroke="none" stroke-width="1" fill="none" fill-rule="evenodd">
        <rect id="Rectangle-Copy-13" stroke="#4A7CDB" fill="#5086EC" fill-rule="nonzero" x="0.5" y="0.5" width="64" height="64" rx="16"></rect>
        <g id="Group-4">
            <mask id="mask-2" fill="white">
                <use xlink:href="#path-1"></use>
            </mask>
            <use id="Mask" fill="#5086EC" fill-rule="nonzero" xlink:href="#path-1"></use>
            <g mask="url(#mask-2)" id="Group">
                <g transform="translate(18.958333, 16.250000)">
                    <g>
                        <path d="M29.7916667,49.0079365 L22.9119272,46.2996032 L1.16906484e-12,25.6904762 L8.28729282,25.6904762 L1.16906484e-12,18.2361111 L8.77478063,18.2361111 L1.16906484e-12,10.343254 L12.1871953,2.45039683 L24.3743906,5.51984127 L54.1666667,31.8551587 L37.9166667,49.0079365 C36.941691,50.1772487 31.416626,49.0079365 29.7916667,49.0079365 Z" id="Path" fill-opacity="0.07" fill="#000000"></path>
                        <polygon id="Path" fill="#FFFFFF" points="25.8088235 12.8968254 25.8088235 18.8492063 12.9044118 25.7936508 0 18.8492063 0 13.3928571 12.9044118 20.3373016"></polygon>
                        <polygon id="Path" fill="#FFFFFF" points="25.8088235 20.6349206 25.8088235 26.5873016 12.9044118 33.531746 0 26.5873016 0 21.1309524 12.9044118 28.0753968"></polygon>
                        <path d="M12.9044118,0 L0,6.31944444 L0,11.2847222 L12.9044118,18.0555556 L25.8088235,11.2847222 L25.8088235,6.31944444 L12.9044118,0 Z M12.9044118,4.96527778 L20.6470588,9.02777778 L12.9044118,12.6388889 L5.16176471,9.02777778 L12.9044118,4.96527778 Z" id="Shape" fill="#FFFFFF"></path>
                    </g>
                </g>
            </g>
        </g>
    </g>
</svg>