<svg xmlns="http://www.w3.org/2000/svg" width="128" height="128" viewBox="0 0 128 128"><title>Cloud Memorystore</title><path d="M126.4738,58.12,100.1694,12.3782A11.5551,11.5551,0,0,0,90.3056,6.5H37.6969a11.5486,11.5486,0,0,0-9.865,5.8757L1.5275,58.0261a11.4753,11.4753,0,0,0-.0023,11.4366L27.83,115.4133A11.7726,11.7726,0,0,0,37.6938,121.5H90.3021a11.7264,11.7264,0,0,0,9.8661-6.06l26.3031-45.7447A11.728,11.728,0,0,0,126.4738,58.12Z" fill="#4285f4"/><path d="M121.8069,77.8069,90,46H88l-6-6L38,51l5,5-5,5,5,5-5,5,6,6-6,4,40.5,40.5H90.3021a11.7263,11.7263,0,0,0,9.8661-6.06Z" opacity="0.07" style="isolation:isolate"/><rect x="38.0002" y="46.0002" width="9" height="5" fill="#fff"/><rect x="38.0002" y="56.0002" width="9" height="5" fill="#fff"/><rect x="38.0002" y="66.0002" width="9" height="5" fill="#fff"/><rect x="38.0002" y="76.0002" width="9" height="5" fill="#fff"/><rect x="81.0002" y="46.0002" width="9" height="5" fill="#fff"/><rect x="81.0002" y="56.0002" width="9" height="5" fill="#fff"/><rect x="81.0002" y="66.0002" width="9" height="5" fill="#fff"/><rect x="81.0002" y="76.0002" width="9" height="5" fill="#fff"/><path d="M46,40V87H82V40ZM61,80V66H53L67,47V61h8Z" fill="#fff"/></svg>