<svg id="Layer_1" data-name="Layer 1" xmlns="http://www.w3.org/2000/svg" width="128" height="128" viewBox="0 0 128 128">
  <title>Cloud PubSub</title>
  <g>
    <path d="M126.47,58.12l-26.3-45.74A11.56,11.56,0,0,0,90.31,6.5H37.7a11.55,11.55,0,0,0-9.86,5.88L1.53,58a11.48,11.48,0,0,0,0,11.44l26.3,46a11.77,11.77,0,0,0,9.86,6.09H90.3a11.73,11.73,0,0,0,9.87-6.06l26.3-45.74A11.73,11.73,0,0,0,126.47,58.12Z" style="fill: #4285f4"/>
    <path d="M89.22,47.74,83.36,49l-14.6-14.6L64.09,43.1,61.55,53.2l4.29,4.29L57.6,59.18,46.3,47.88l-7.67,7.38L52.76,69.37l-15,11.9L78,121.5H90.3a11.73,11.73,0,0,0,9.87-6.06l20.72-36Z" style="opacity: 0.070000000298023;isolation: isolate"/>
    <path d="M82.86,47a5.32,5.32,0,1,1-1.95,7.27A5.32,5.32,0,0,1,82.86,47" style="fill: #fff"/>
    <path d="M39.82,56.18a5.32,5.32,0,1,1,7.27-1.95,5.32,5.32,0,0,1-7.27,1.95" style="fill: #fff"/>
    <path d="M69.32,88.85A5.32,5.32,0,1,1,64,83.52a5.32,5.32,0,0,1,5.32,5.32" style="fill: #fff"/>
    <g>
      <path d="M64,52.94a11.06,11.06,0,0,1,2.46.28V39.15H61.54V53.22A11.06,11.06,0,0,1,64,52.94Z" style="fill: #fff"/>
      <path d="M74.57,67.26a11,11,0,0,1-2.47,4.25l12.19,7,2.46-4.26Z" style="fill: #fff"/>
      <path d="M53.43,67.26l-12.18,7,2.46,4.26,12.19-7A11,11,0,0,1,53.43,67.26Z" style="fill: #fff"/>
    </g>
    <path d="M72.6,64A8.6,8.6,0,1,1,64,55.4,8.6,8.6,0,0,1,72.6,64" style="fill: #fff"/>
    <path d="M39.1,70.57a6.76,6.76,0,1,1-2.47,9.23,6.76,6.76,0,0,1,2.47-9.23" style="fill: #fff"/>
    <path d="M82.14,82.27a6.76,6.76,0,1,1,9.23-2.47,6.75,6.75,0,0,1-9.23,2.47" style="fill: #fff"/>
    <path d="M70.76,39.15A6.76,6.76,0,1,1,64,32.39a6.76,6.76,0,0,1,6.76,6.76" style="fill: #fff"/>
  </g>
</svg>
