<?xml version="1.0" encoding="UTF-8"?>
<svg width="65px" height="65px" viewBox="0 0 65 65" version="1.1" xmlns="http://www.w3.org/2000/svg" xmlns:xlink="http://www.w3.org/1999/xlink">
    <!-- Generator: Sketch 62 (91390) - https://sketch.com -->
    <title>Application Icons/GoogleCloud/Cache/65x65</title>
    <desc>Created with Sketch.</desc>
    <defs>
        <rect id="path-1" x="0" y="0" width="65" height="65" rx="16"></rect>
    </defs>
    <g id="Application-Icons/GoogleCloud/Cache/65x65" stroke="none" stroke-width="1" fill="none" fill-rule="evenodd">
        <rect id="Rectangle-Copy-13" stroke="#4A7CDB" fill="#5086EC" fill-rule="nonzero" x="0.5" y="0.5" width="64" height="64" rx="16"></rect>
        <g id="B-+-Path-+-Shape-Mask">
            <mask id="mask-2" fill="white">
                <use xlink:href="#path-1"></use>
            </mask>
            <use id="Mask" fill="#5086EC" fill-rule="nonzero" xlink:href="#path-1"></use>
            <g id="B" mask="url(#mask-2)">
                <g transform="translate(13.541667, 13.541667)"></g>
            </g>
            <path d="M55.0750625,73.125 L45.7450968,73.125 L13.8426333,42.1650327 L18.9590661,39.244281 L13.5416667,33.9869281 L18.9590661,31.0661765 L13.5416667,25.8088235 L21.6677658,21.7197712 L27.3861319,13.5416667 L34.0073979,19.9673203 L35.8131978,13.5416667 L42.4344638,19.9673203 L44.2402636,13.5416667 L75.8333333,44.2013807 L59.8905287,70.7883987 C58.6866621,72.3461329 57.0815067,73.125 55.0750625,73.125 Z" id="Path" fill-opacity="0.07" fill="#000000" mask="url(#mask-2)"></path>
            <g id="Shape-2" mask="url(#mask-2)" fill="#FFFFFF">
                <g transform="translate(13.541667, 13.541667)" id="Shape">
                    <path d="M8.71875,31.9921875 L8.71875,36.5625 L12.9375,36.5625 L12.9375,31.9921875 L17.15625,31.9921875 L17.15625,36.5625 L21.09375,36.5625 L21.09375,31.9921875 L24.46875,31.9921875 L24.46875,36.5625 L28.6875,36.5625 L28.6875,31.9921875 C31.125,31.9921875 32.34375,30.6591797 32.34375,27.9931641 L36.5625,27.9931641 L36.5625,23.9941406 L32.34375,23.9941406 L32.34375,20.2807617 L36.5625,20.2807617 L36.5625,16.2817383 L32.34375,16.2817383 L32.34375,11.9970703 L36.5625,11.9970703 L36.5625,7.99804688 L32.34375,7.99804688 C32.34375,5.33203125 31.125,3.99902344 28.6875,3.99902344 L28.6875,0 L24.75,0 L24.75,3.99902344 L20.8125,3.99902344 L20.8125,0 L16.875,0 L16.875,3.99902344 L12.9375,3.99902344 L12.9375,0 L9,0 L9,3.99902344 C6.375,3.99902344 5.0625,5.33203125 5.0625,7.99804688 L0,7.99804688 L0,11.9970703 L5.0625,11.9970703 L5.0625,15.9960938 L0,15.9960938 L0,19.9951172 L5.0625,19.9951172 L5.0625,23.9941406 L0,23.9941406 L0,27.9931641 L5.0625,27.9931641 C5.0625,30.6591797 6.28125,31.9921875 8.71875,31.9921875 Z M20.25,9.71191406 L20.25,16.5673828 L23.625,16.5673828 L17.4375,25.4223633 L17.4375,18.5668945 L14.0625,18.5668945 L20.25,9.71191406 Z M27.5625,7.99804688 L9.84375,7.99804688 C9.28125,7.99804688 9,8.28369141 9,8.85498047 L9,27.1362305 C9,27.7075195 9.28125,27.9931641 9.84375,27.9931641 L27.5625,27.9931641 C28.125,27.9931641 28.40625,27.7075195 28.40625,27.1362305 L28.40625,8.85498047 C28.40625,8.28369141 28.125,7.99804688 27.5625,7.99804688 Z"></path>
                </g>
            </g>
        </g>
    </g>
</svg>