<?xml version="1.0" encoding="UTF-8"?>
<svg width="65px" height="65px" viewBox="0 0 65 65" version="1.1" xmlns="http://www.w3.org/2000/svg" xmlns:xlink="http://www.w3.org/1999/xlink">
    <!-- Generator: Sketch 58 (84663) - https://sketch.com -->
    <title>Application Icons/GoogleCloud/65x65</title>
    <desc>Created with Sketch.</desc>
    <defs>
        <polygon id="path-1" points="0.205293939 0.680374273 23.0403077 0.680374273 23.0403077 11.1584705 0.205293939 11.1584705"></polygon>
        <polygon id="path-3" points="0.684283402 0.0576458984 19.4895074 0.0576458984 19.4895074 25.7325775 0.684283402 25.7325775"></polygon>
        <polygon id="path-5" points="0 0.520413791 18.1723538 0.520413791 18.1723538 18.9149588 0 18.9149588"></polygon>
    </defs>
    <g id="Application-Icons/GoogleCloud/65x65" stroke="none" stroke-width="1" fill="none" fill-rule="evenodd">
        <rect id="Rectangle-Copy-13" stroke="#D8D8DA" fill="#FAFAFA" fill-rule="nonzero" x="0.5" y="0.5" width="64" height="64" rx="16"></rect>
        <g id="Group-13" transform="translate(15.000000, 16.000000)">
            <g id="Group-12">
                <g id="Group-3" transform="translate(4.128099, 0.428170)">
                    <mask id="mask-2" fill="white">
                        <use xlink:href="#path-1"></use>
                    </mask>
                    <g id="Clip-2"></g>
                    <path d="M18.6683449,8.7317284 L19.7640749,8.7317284 L22.8869055,5.57363934 L23.0403077,4.23283662 C17.2285556,-0.955294236 8.35862107,-0.395703018 3.22841309,5.48166693 C1.80286832,7.11500842 0.769594904,9.05640212 0.205293939,11.1584705 C0.552640358,11.0144173 0.938337328,10.9911472 1.30102397,11.0919844 L7.54668512,10.0503691 C7.54668512,10.0503691 7.86444683,9.51848041 8.02880634,9.55172345 C10.806482,6.46566099 15.481962,6.10663613 18.6902595,8.7317284 L18.6683449,8.7317284 Z" id="Fill-1" fill="#EA4335" mask="url(#mask-2)"></path>
                </g>
                <g id="Group-6" transform="translate(16.435950, 4.614331)">
                    <mask id="mask-4" fill="white">
                        <use xlink:href="#path-3"></use>
                    </mask>
                    <g id="Clip-5"></g>
                    <path d="M15.0273895,6.97219877 C14.3096863,4.29835004 12.8359294,1.89598616 10.7869143,0.0576458984 L6.40399415,4.49005159 C8.25468216,6.01923155 9.30877445,8.32297441 9.26384952,10.7397436 L9.26384952,11.5264956 C11.4191505,11.5264956 13.1646484,13.2928093 13.1646484,15.4702286 C13.1646484,17.6498641 11.4191505,19.4161777 9.26384952,19.4161777 L1.46225172,19.4161777 L0.684283402,20.2140108 L0.684283402,24.9456038 L1.46225172,25.7323559 L9.26384952,25.7323559 C14.8674129,25.7755718 19.4453729,21.2179507 19.4892021,15.5522281 C19.5154997,12.1171137 17.8412242,8.89586284 15.0273895,6.97219877" id="Fill-4" fill="#4285F4" mask="url(#mask-4)"></path>
                </g>
                <path d="M10.0858662,30.3024739 L17.887464,30.3024739 L17.887464,23.9862958 L10.0858662,23.9862958 C9.53033106,23.9862958 8.98027459,23.8644047 8.47514304,23.6305953 L7.37941302,23.9752148 L4.23466784,27.1333039 L3.96073533,28.2414053 C5.72486067,29.5877485 7.87577872,30.3124468 10.0858662,30.3024739" id="Fill-7" fill="#34A853"></path>
                <g id="Group-11" transform="translate(0.000000, 9.292982)">
                    <mask id="mask-6" fill="white">
                        <use xlink:href="#path-5"></use>
                    </mask>
                    <g id="Clip-10"></g>
                    <path d="M10.0858662,0.520413791 C4.48230282,0.554826382 -0.0332006198,5.17560931 -0.00050706084,10.84244 C0.0182986915,14.0071776 1.48000255,16.9857543 3.96073533,18.9149588 L8.48610034,14.3385 C6.52255213,13.4409378 5.65035103,11.10506 6.53789236,9.11934228 C7.42433795,7.13362453 9.73523258,6.25157579 11.6987808,7.14802985 C12.5633118,7.54362205 13.2569089,8.24505025 13.6469888,9.11934228 L18.1723538,4.5428834 C16.2471561,1.99757443 13.2547174,0.509394224 10.0858662,0.520413791" id="Fill-9" fill="#FBBC05" mask="url(#mask-6)"></path>
                </g>
            </g>
        </g>
    </g>
</svg>