<svg xmlns="http://www.w3.org/2000/svg" xmlns:xlink="http://www.w3.org/1999/xlink" viewBox="0 0 82 71" fill="#fff" fill-rule="evenodd" stroke="#000" stroke-linecap="round" stroke-linejoin="round"><use xlink:href="#A" x=".5" y=".5"/><symbol id="A" overflow="visible"><g stroke="none"><path d="M79.04 31.413L62.602 3.578C61.344 1.406 59 .045 56.44 0H23.56c-2.56.044-4.906 1.406-6.162 3.578L.954 31.34c-1.272 2.155-1.272 4.806 0 6.962L17.39 66.294c1.244 2.203 3.583 3.61 6.162 3.706h32.88c2.58-.086 4.922-1.487 6.168-3.688L79.04 38.478c1.28-2.2 1.28-4.875 0-7.065z" fill="#4285f4"/><path d="M53.603 21.78l-4.33-2.708-8.95-8.702-2.2 8.64 2.206 7.63 5.85 5.696-1.18 1.138-1.6-1.527-1.706 2.008-12.718-12.384-3.475 3.36 7.418 7.223-2.294 1.74-5.625-5.477-3.456 3.383 18.456 17.952-.556.61-14.443-14.057-3.45 3.37 7.63 7.43-2.05.76L49.865 69.98h6.57c2.58-.086 4.922-1.487 6.168-3.688l13.406-22.698z" fill="#000" opacity=".07"/><path d="M24.228 44.3c4.7 7.57 14.3 10.785 22.798 7.64S60.5 40.176 58.854 31.47 49.412 16.448 40.32 16.454V10.37l-8.45 7.9 8.45 8.373v-6.085c7.062-.001 13.12 4.906 14.402 11.668s-2.574 13.452-9.17 15.908-14.053-.023-17.73-5.894zm5.894-4.924v-7.418h2.45a3.68 3.68 0 0 1 1.812.444c.53.296.965.733 1.25 1.26a3.72 3.72 0 0 1 .456 1.826v.34c.01.635-.142 1.263-.444 1.826-.286.527-.72.963-1.25 1.26-.543.306-1.16.466-1.788.462zm1.837-6.03v4.698h.625a1.44 1.44 0 0 0 1.213-.548 2.62 2.62 0 0 0 .425-1.625v-.323a2.61 2.61 0 0 0-.425-1.62 1.47 1.47 0 0 0-1.25-.548zm11.44 6.03h-1.825l-2.7-4.613v4.613h-1.83v-7.418h1.837l2.694 4.613v-4.613h1.83zm5.078-1.94a.73.73 0 0 0-.287-.61 3.57 3.57 0 0 0-1-.45c-.4-.127-.8-.28-1.17-.456q-1.48-.706-1.48-1.94a1.71 1.71 0 0 1 .369-1.089c.273-.332.634-.584 1.044-.73a4.16 4.16 0 0 1 1.544-.286c.505-.007 1.006.1 1.47.286a2.32 2.32 0 0 1 1.031.809 2.08 2.08 0 0 1 .363 1.217h-1.875c.015-.263-.1-.52-.287-.7a1.13 1.13 0 0 0-.77-.25 1.27 1.27 0 0 0-.775.213c-.193.1-.3.3-.3.526a.61.61 0 0 0 .31.526 4.01 4.01 0 0 0 1.1.481 6.2 6.2 0 0 1 1.294.53c.76.348 1.248 1.092 1.25 1.9.022.598-.258 1.17-.75 1.527a3.41 3.41 0 0 1-2.062.554 4.19 4.19 0 0 1-1.675-.323 2.49 2.49 0 0 1-1.131-.888c-.257-.385-.4-.837-.38-1.296h1.838a1.12 1.12 0 0 0 .319.876c.295.213.66.312 1.025.28.254.014.506-.052.72-.2a.6.6 0 0 0 .28-.53z"/><use xlink:href="#C"/><use xlink:href="#C" x="3.956" y="-6.852"/><use xlink:href="#C" x="-0.025" y="7.866"/></g></symbol><defs ><path id="C" d="M20.86 30.134c0-1.322 1.093-2.385 2.45-2.385s2.45 1.064 2.45 2.385-1.093 2.385-2.45 2.385-2.45-1.064-2.45-2.385z"/></defs></svg>