<?xml version="1.0" encoding="UTF-8"?>
<svg width="65px" height="65px" viewBox="0 0 65 65" version="1.1" xmlns="http://www.w3.org/2000/svg" xmlns:xlink="http://www.w3.org/1999/xlink">
    <!-- Generator: Sketch 62 (91390) - https://sketch.com -->
    <title>Application Icons/GoogleCloud/Storage/65x65</title>
    <desc>Created with Sketch.</desc>
    <defs>
        <rect id="path-1" x="0" y="0" width="65" height="65" rx="16"></rect>
    </defs>
    <g id="Application-Icons/GoogleCloud/Storage/65x65" stroke="none" stroke-width="1" fill="none" fill-rule="evenodd">
        <rect id="Rectangle-Copy-13" stroke="#4A7CDB" fill="#5086EC" fill-rule="nonzero" x="0.5" y="0.5" width="64" height="64" rx="16"></rect>
        <g id="B">
            <mask id="mask-2" fill="white">
                <use xlink:href="#path-1"></use>
            </mask>
            <use id="Mask" fill="#5086EC" fill-rule="nonzero" xlink:href="#path-1"></use>
            <g mask="url(#mask-2)">
                <g transform="translate(16.250000, 21.666667)">
                    <path d="M56.875,23.3198459 L33.4558824,0 L25.0919118,0.89234104 L0,7.73362235 L7.16911765,14.8723507 L0.298713235,21.118738 L30.7674632,51.4583333 L37.0404412,51.4583333 C39.0318627,51.4583333 40.625,50.6651413 41.8198529,49.0787572 L56.875,23.3198459 Z" id="Path" fill-opacity="0.07" fill="#000000"></path>
                    <path d="M0.870535714,0 C0.290178571,0 0,0.290178571 0,0.870535714 L0,7.25446429 C0,7.83482143 0.290178571,8.125 0.870535714,8.125 L31.6294643,8.125 C32.2098214,8.125 32.5,7.83482143 32.5,7.25446429 L32.5,0.870535714 C32.5,0.290178571 32.2098214,0 31.6294643,0 L0.870535714,0 Z M24.375,4.0625 C24.375,2.77642857 25.4103571,1.74107143 26.6964286,1.74107143 C27.9825,1.74107143 29.0178571,2.77642857 29.0178571,4.0625 C29.0178571,5.34857143 27.9825,6.38392857 26.6964286,6.38392857 C25.4103571,6.38392857 24.375,5.34857143 24.375,4.0625 Z" id="Shape" fill="#FFFFFF"></path>
                    <path d="M0.870535714,13.5416667 C0.290178571,13.5416667 0,13.8318452 0,14.4122024 L0,20.796131 C0,21.3764881 0.290178571,21.6666667 0.870535714,21.6666667 L31.6294643,21.6666667 C32.2098214,21.6666667 32.5,21.3764881 32.5,20.796131 L32.5,14.4122024 C32.5,13.8318452 32.2098214,13.5416667 31.6294643,13.5416667 L0.870535714,13.5416667 Z M24.375,17.6041667 C24.375,16.3180952 25.4103571,15.2827381 26.6964286,15.2827381 C27.9825,15.2827381 29.0178571,16.3180952 29.0178571,17.6041667 C29.0178571,18.8902381 27.9825,19.9255952 26.6964286,19.9255952 C25.4103571,19.9255952 24.375,18.8902381 24.375,17.6041667 Z" id="Shape" fill="#FFFFFF"></path>
                </g>
            </g>
        </g>
    </g>
</svg>