<?xml version="1.0" encoding="UTF-8"?>
<svg width="65px" height="65px" viewBox="0 0 65 65" version="1.1" xmlns="http://www.w3.org/2000/svg" xmlns:xlink="http://www.w3.org/1999/xlink">
    <!-- Generator: Sketch 62 (91390) - https://sketch.com -->
    <title>Application Icons/GoogleCloud/Subnetwork/65x65</title>
    <desc>Created with Sketch.</desc>
    <defs>
        <rect id="path-1" x="0" y="0" width="65" height="65" rx="16"></rect>
    </defs>
    <g id="Application-Icons/GoogleCloud/Subnetwork/65x65" stroke="none" stroke-width="1" fill="none" fill-rule="evenodd">
        <rect id="Rectangle-Copy-13" stroke="#4A7CDB" fill="#5086EC" fill-rule="nonzero" x="0.5" y="0.5" width="64" height="64" rx="16"></rect>
        <g id="Group">
            <mask id="mask-2" fill="white">
                <use xlink:href="#path-1"></use>
            </mask>
            <use id="Mask" fill="#5086EC" fill-rule="nonzero" xlink:href="#path-1"></use>
            <g mask="url(#mask-2)" id="Path">
                <g transform="translate(13.541667, 13.541667)">
                    <path d="M56.875,39.8127736 L22.8832118,2.70833333 L17.9835985,9.62962963 L19.7128738,11.5172559 L18.8482361,15.2925084 L24.036062,20.9553872 L5.59045883,20.9553872 L2.70833333,24.101431 L40.1759648,65 C42.0973818,65 43.6345154,64.161055 44.7873656,62.483165 L56.875,39.8127736 Z" fill-opacity="0.07" fill="#000000"></path>
                    <path d="M32.0609115,14.8151852 L22.9040365,5.51296296 C23.022526,5.1037037 23.1054688,4.66675926 23.1054688,4.21296296 C23.1054688,1.87777778 21.2570313,0 18.9583333,0 C16.6596354,0 14.8111979,1.87777778 14.8111979,4.21296296 C14.8111979,6.12685185 16.0553385,7.73740741 17.7734375,8.25259259 L17.7734375,13.2407407 L20.1432292,13.2407407 L20.1432292,8.25259259 C20.3220073,8.1989275 20.4969856,8.13297285 20.6669531,8.05518519 L29.3261719,16.8518519 L7.89733073,16.8518519 C7.21259575,15.3784897 5.75098498,14.4402205 4.14713542,14.4444444 C1.8484375,14.4444444 0,16.3222222 0,18.6574074 C0,20.9925926 1.8484375,22.8703704 4.14713542,22.8703704 C4.65997955,22.87124 5.16855907,22.775745 5.64721354,22.5887037 L15.0884635,32.1798148 C14.9043447,32.666067 14.8103419,33.1827192 14.8111979,33.7037037 C14.8111979,36.0388889 16.6596354,37.9166667 18.9583333,37.9166667 C21.2570313,37.9166667 23.1054688,36.0388889 23.1054688,33.7037037 C23.1054688,31.7898148 21.8613281,30.1792593 20.1432292,29.6640741 L20.1432292,23.7731481 L17.7734375,23.7731481 L17.7734375,29.6640741 L17.4582552,29.7844444 L8.29427083,20.462963 L30.0193359,20.462963 C30.7040709,21.9363251 32.1656817,22.8745943 33.7695313,22.8703704 C36.0682292,22.8703704 37.9166667,20.9925926 37.9166667,18.6574074 C37.9166667,16.3222222 36.0682292,14.4444444 33.7695313,14.4444444 C33.1805376,14.4433637 32.5980735,14.5697483 32.0609115,14.8151852 Z" fill="#FFFFFF"></path>
                </g>
            </g>
        </g>
    </g>
</svg>