<?xml version="1.0" encoding="UTF-8"?>
<svg width="65px" height="65px" viewBox="0 0 65 65" version="1.1" xmlns="http://www.w3.org/2000/svg" xmlns:xlink="http://www.w3.org/1999/xlink">
    <!-- Generator: Sketch 62 (91390) - https://sketch.com -->
    <title>Application Icons/GoogleCloud/Container/65x65</title>
    <desc>Created with Sketch.</desc>
    <defs>
        <rect id="path-1" x="0" y="0" width="65" height="65" rx="16"></rect>
    </defs>
    <g id="Application-Icons/GoogleCloud/Container/65x65" stroke="none" stroke-width="1" fill="none" fill-rule="evenodd">
        <rect id="Rectangle-Copy-13" stroke="#4A7CDB" fill="#5086EC" fill-rule="nonzero" x="0.5" y="0.5" width="64" height="64" rx="16"></rect>
        <g id="Group-4">
            <mask id="mask-2" fill="white">
                <use xlink:href="#path-1"></use>
            </mask>
            <use id="Mask" fill="#5086EC" fill-rule="nonzero" xlink:href="#path-1"></use>
            <g mask="url(#mask-2)">
                <g transform="translate(16.250000, 13.541667)">
                    <path d="M36.3825818,54.1666667 L28.2191276,54.1666667 L2.70833333,28.4375 L2.70833333,9.140625 L18.5250258,2.70833333 L34.8519341,8.88333333 L56.875,29.7916667 L40.4643088,52.1083333 C39.4438771,53.4805556 38.0833014,54.1666667 36.3825818,54.1666667 Z" id="Path" fill-opacity="0.07" fill="#000000"></path>
                    <path d="M18.6710859,37.660473 L33.6079545,29.4622748 C34.6748737,28.7790916 35.2083333,28.0105105 35.2083333,27.1565315 L35.2083333,11.0163288 C35.2083333,9.99155405 34.6748737,9.13757508 33.6079545,8.45439189 L18.6710859,0.256193694 C17.9598064,-0.0853978979 17.2485269,-0.0853978979 16.5372475,0.256193694 L1.60037879,8.45439189 C0.533459596,9.13757508 0,9.99155405 0,11.0163288 L0,27.1565315 C0,28.0105105 0.533459596,28.7790916 1.60037879,29.4622748 L16.5372475,37.660473 C17.2485269,38.0020646 17.9598064,38.0020646 18.6710859,37.660473 Z M18.444899,33.8729054 L30.2130177,27.4475676 C31.05375,26.911952 31.4741162,26.3093844 31.4741162,25.6398649 L31.4741162,12.990045 C31.4741162,12.1866216 31.05375,11.5171021 30.2130177,10.9814865 L18.444899,4.55614865 C17.8844108,4.28834084 17.3239226,4.28834084 16.7634343,4.55614865 L4.99531566,10.9814865 C4.15458333,11.5171021 3.73421717,12.1866216 3.73421717,12.990045 L3.73421717,25.6398649 C3.73421717,26.3093844 4.15458333,26.9116104 4.99531566,27.4465428 L16.7634343,33.8718806 C17.3239226,34.1396884 17.8844108,34.1396884 18.444899,33.8718806 L18.444899,33.8729054 Z" id="Shape" fill="#FFFFFF"></path>
                    <path d="M25.9535922,13.6510943 L18.659394,9.2739899 L18.659394,2.70833333 L16.4981501,2.70833333 L16.4981501,9.2739899 L9.2039519,13.6510943 L17.5787721,18.5753367 L25.9535922,13.6510943 Z M8.4313072,15.0189394 L8.32324501,23.6046296 L2.70833333,26.8874579 L3.78895529,28.7827441 L9.40386696,25.4999158 L16.7953211,29.7085017 L16.8190948,19.9015993 L8.4313072,15.0189394 Z M18.4130122,29.7916667 L25.8044664,25.5830808 L31.419378,28.8659091 L32.5,26.9706229 L26.8850883,23.6877946 L26.7770261,15.1021044 L18.3784323,19.9847643 L18.4130122,29.7916667 Z" id="Shape" fill="#FFFFFF"></path>
                </g>
            </g>
        </g>
    </g>
</svg>